G04 (created by PCBNEW (2012-oct-18)-testing) date Mon 29 Oct 2012 19:12:37 NZDT*
%MOIN*%
G04 Gerber Fmt 3.4, Leading zero omitted, Abs format*
%FSLAX34Y34*%
G01*
G70*
G90*
G04 APERTURE LIST*
%ADD10C,0.006*%
%ADD11C,0.00590551*%
%ADD12C,0.005*%
%ADD13C,0.0026*%
%ADD14C,0.004*%
%ADD15C,0.002*%
%ADD16C,0.0059*%
%ADD17C,0.0024*%
G04 APERTURE END LIST*
G54D10*
G54D11*
X58500Y-52000D02*
X55500Y-52000D01*
X55500Y-52000D02*
X55500Y-57000D01*
X55500Y-57000D02*
X58500Y-57000D01*
G54D12*
X54530Y-55050D02*
X52970Y-55050D01*
X52970Y-55050D02*
X52970Y-56950D01*
X52970Y-56950D02*
X54530Y-56950D01*
X54530Y-56950D02*
X54530Y-55050D01*
X54530Y-55250D02*
X54960Y-55250D01*
X54530Y-55750D02*
X54960Y-55750D01*
X54530Y-56250D02*
X54960Y-56250D01*
X54960Y-56750D02*
X54530Y-56750D01*
X52970Y-56750D02*
X52540Y-56750D01*
X52540Y-56250D02*
X52970Y-56250D01*
X52540Y-55750D02*
X52970Y-55750D01*
X52540Y-55250D02*
X52970Y-55250D01*
X53446Y-55340D02*
G75*
G03X53446Y-55340I-186J0D01*
G74*
G01*
X53750Y-54250D02*
X53750Y-54750D01*
X53250Y-54250D02*
X53250Y-54740D01*
X53100Y-54250D02*
X53900Y-54250D01*
X53900Y-54250D02*
X53900Y-54750D01*
X53900Y-54750D02*
X53100Y-54750D01*
X53100Y-54750D02*
X53100Y-54250D01*
X50250Y-52500D02*
X50250Y-52000D01*
X50750Y-52500D02*
X50750Y-52010D01*
X50900Y-52500D02*
X50100Y-52500D01*
X50100Y-52500D02*
X50100Y-52000D01*
X50100Y-52000D02*
X50900Y-52000D01*
X50900Y-52000D02*
X50900Y-52500D01*
X53500Y-52500D02*
X53500Y-52000D01*
X54000Y-52500D02*
X54000Y-52010D01*
X54150Y-52500D02*
X53350Y-52500D01*
X53350Y-52500D02*
X53350Y-52000D01*
X53350Y-52000D02*
X54150Y-52000D01*
X54150Y-52000D02*
X54150Y-52500D01*
X56750Y-52500D02*
X56750Y-52000D01*
X57250Y-52500D02*
X57250Y-52010D01*
X57400Y-52500D02*
X56600Y-52500D01*
X56600Y-52500D02*
X56600Y-52000D01*
X56600Y-52000D02*
X57400Y-52000D01*
X57400Y-52000D02*
X57400Y-52500D01*
G54D13*
X50696Y-51368D02*
X50696Y-51496D01*
X50696Y-51496D02*
X50893Y-51496D01*
X50893Y-51368D02*
X50893Y-51496D01*
X50696Y-51368D02*
X50893Y-51368D01*
X50696Y-51123D02*
X50696Y-51182D01*
X50696Y-51182D02*
X50795Y-51182D01*
X50795Y-51123D02*
X50795Y-51182D01*
X50696Y-51123D02*
X50795Y-51123D01*
X50696Y-51318D02*
X50696Y-51377D01*
X50696Y-51377D02*
X50795Y-51377D01*
X50795Y-51318D02*
X50795Y-51377D01*
X50696Y-51318D02*
X50795Y-51318D01*
X50696Y-51172D02*
X50696Y-51328D01*
X50696Y-51328D02*
X50765Y-51328D01*
X50765Y-51172D02*
X50765Y-51328D01*
X50696Y-51172D02*
X50765Y-51172D01*
X50107Y-51368D02*
X50107Y-51496D01*
X50107Y-51496D02*
X50304Y-51496D01*
X50304Y-51368D02*
X50304Y-51496D01*
X50107Y-51368D02*
X50304Y-51368D01*
X50107Y-51004D02*
X50107Y-51132D01*
X50107Y-51132D02*
X50304Y-51132D01*
X50304Y-51004D02*
X50304Y-51132D01*
X50107Y-51004D02*
X50304Y-51004D01*
X50205Y-51318D02*
X50205Y-51377D01*
X50205Y-51377D02*
X50304Y-51377D01*
X50304Y-51318D02*
X50304Y-51377D01*
X50205Y-51318D02*
X50304Y-51318D01*
X50205Y-51123D02*
X50205Y-51182D01*
X50205Y-51182D02*
X50304Y-51182D01*
X50304Y-51123D02*
X50304Y-51182D01*
X50205Y-51123D02*
X50304Y-51123D01*
X50235Y-51172D02*
X50235Y-51328D01*
X50235Y-51328D02*
X50304Y-51328D01*
X50304Y-51172D02*
X50304Y-51328D01*
X50235Y-51172D02*
X50304Y-51172D01*
X50500Y-51211D02*
X50500Y-51289D01*
X50500Y-51289D02*
X50578Y-51289D01*
X50578Y-51211D02*
X50578Y-51289D01*
X50500Y-51211D02*
X50578Y-51211D01*
X50696Y-51014D02*
X50696Y-51132D01*
X50696Y-51132D02*
X50814Y-51132D01*
X50814Y-51014D02*
X50814Y-51132D01*
X50696Y-51014D02*
X50814Y-51014D01*
X50864Y-51004D02*
X50864Y-51093D01*
X50864Y-51093D02*
X50893Y-51093D01*
X50893Y-51004D02*
X50893Y-51093D01*
X50864Y-51004D02*
X50893Y-51004D01*
G54D14*
X50706Y-51476D02*
X50294Y-51476D01*
X50304Y-51024D02*
X50864Y-51024D01*
G54D15*
X50862Y-51073D02*
G75*
G03X50862Y-51073I-28J0D01*
G74*
G01*
G54D14*
X50893Y-51113D02*
G75*
G03X50893Y-51387I0J-137D01*
G74*
G01*
X50107Y-51387D02*
G75*
G03X50107Y-51113I0J137D01*
G74*
G01*
G54D13*
X53946Y-51368D02*
X53946Y-51496D01*
X53946Y-51496D02*
X54143Y-51496D01*
X54143Y-51368D02*
X54143Y-51496D01*
X53946Y-51368D02*
X54143Y-51368D01*
X53946Y-51123D02*
X53946Y-51182D01*
X53946Y-51182D02*
X54045Y-51182D01*
X54045Y-51123D02*
X54045Y-51182D01*
X53946Y-51123D02*
X54045Y-51123D01*
X53946Y-51318D02*
X53946Y-51377D01*
X53946Y-51377D02*
X54045Y-51377D01*
X54045Y-51318D02*
X54045Y-51377D01*
X53946Y-51318D02*
X54045Y-51318D01*
X53946Y-51172D02*
X53946Y-51328D01*
X53946Y-51328D02*
X54015Y-51328D01*
X54015Y-51172D02*
X54015Y-51328D01*
X53946Y-51172D02*
X54015Y-51172D01*
X53357Y-51368D02*
X53357Y-51496D01*
X53357Y-51496D02*
X53554Y-51496D01*
X53554Y-51368D02*
X53554Y-51496D01*
X53357Y-51368D02*
X53554Y-51368D01*
X53357Y-51004D02*
X53357Y-51132D01*
X53357Y-51132D02*
X53554Y-51132D01*
X53554Y-51004D02*
X53554Y-51132D01*
X53357Y-51004D02*
X53554Y-51004D01*
X53455Y-51318D02*
X53455Y-51377D01*
X53455Y-51377D02*
X53554Y-51377D01*
X53554Y-51318D02*
X53554Y-51377D01*
X53455Y-51318D02*
X53554Y-51318D01*
X53455Y-51123D02*
X53455Y-51182D01*
X53455Y-51182D02*
X53554Y-51182D01*
X53554Y-51123D02*
X53554Y-51182D01*
X53455Y-51123D02*
X53554Y-51123D01*
X53485Y-51172D02*
X53485Y-51328D01*
X53485Y-51328D02*
X53554Y-51328D01*
X53554Y-51172D02*
X53554Y-51328D01*
X53485Y-51172D02*
X53554Y-51172D01*
X53750Y-51211D02*
X53750Y-51289D01*
X53750Y-51289D02*
X53828Y-51289D01*
X53828Y-51211D02*
X53828Y-51289D01*
X53750Y-51211D02*
X53828Y-51211D01*
X53946Y-51014D02*
X53946Y-51132D01*
X53946Y-51132D02*
X54064Y-51132D01*
X54064Y-51014D02*
X54064Y-51132D01*
X53946Y-51014D02*
X54064Y-51014D01*
X54114Y-51004D02*
X54114Y-51093D01*
X54114Y-51093D02*
X54143Y-51093D01*
X54143Y-51004D02*
X54143Y-51093D01*
X54114Y-51004D02*
X54143Y-51004D01*
G54D14*
X53956Y-51476D02*
X53544Y-51476D01*
X53554Y-51024D02*
X54114Y-51024D01*
G54D15*
X54112Y-51073D02*
G75*
G03X54112Y-51073I-28J0D01*
G74*
G01*
G54D14*
X54143Y-51113D02*
G75*
G03X54143Y-51387I0J-137D01*
G74*
G01*
X53357Y-51387D02*
G75*
G03X53357Y-51113I0J137D01*
G74*
G01*
G54D13*
X57196Y-51368D02*
X57196Y-51496D01*
X57196Y-51496D02*
X57393Y-51496D01*
X57393Y-51368D02*
X57393Y-51496D01*
X57196Y-51368D02*
X57393Y-51368D01*
X57196Y-51123D02*
X57196Y-51182D01*
X57196Y-51182D02*
X57295Y-51182D01*
X57295Y-51123D02*
X57295Y-51182D01*
X57196Y-51123D02*
X57295Y-51123D01*
X57196Y-51318D02*
X57196Y-51377D01*
X57196Y-51377D02*
X57295Y-51377D01*
X57295Y-51318D02*
X57295Y-51377D01*
X57196Y-51318D02*
X57295Y-51318D01*
X57196Y-51172D02*
X57196Y-51328D01*
X57196Y-51328D02*
X57265Y-51328D01*
X57265Y-51172D02*
X57265Y-51328D01*
X57196Y-51172D02*
X57265Y-51172D01*
X56607Y-51368D02*
X56607Y-51496D01*
X56607Y-51496D02*
X56804Y-51496D01*
X56804Y-51368D02*
X56804Y-51496D01*
X56607Y-51368D02*
X56804Y-51368D01*
X56607Y-51004D02*
X56607Y-51132D01*
X56607Y-51132D02*
X56804Y-51132D01*
X56804Y-51004D02*
X56804Y-51132D01*
X56607Y-51004D02*
X56804Y-51004D01*
X56705Y-51318D02*
X56705Y-51377D01*
X56705Y-51377D02*
X56804Y-51377D01*
X56804Y-51318D02*
X56804Y-51377D01*
X56705Y-51318D02*
X56804Y-51318D01*
X56705Y-51123D02*
X56705Y-51182D01*
X56705Y-51182D02*
X56804Y-51182D01*
X56804Y-51123D02*
X56804Y-51182D01*
X56705Y-51123D02*
X56804Y-51123D01*
X56735Y-51172D02*
X56735Y-51328D01*
X56735Y-51328D02*
X56804Y-51328D01*
X56804Y-51172D02*
X56804Y-51328D01*
X56735Y-51172D02*
X56804Y-51172D01*
X57000Y-51211D02*
X57000Y-51289D01*
X57000Y-51289D02*
X57078Y-51289D01*
X57078Y-51211D02*
X57078Y-51289D01*
X57000Y-51211D02*
X57078Y-51211D01*
X57196Y-51014D02*
X57196Y-51132D01*
X57196Y-51132D02*
X57314Y-51132D01*
X57314Y-51014D02*
X57314Y-51132D01*
X57196Y-51014D02*
X57314Y-51014D01*
X57364Y-51004D02*
X57364Y-51093D01*
X57364Y-51093D02*
X57393Y-51093D01*
X57393Y-51004D02*
X57393Y-51093D01*
X57364Y-51004D02*
X57393Y-51004D01*
G54D14*
X57206Y-51476D02*
X56794Y-51476D01*
X56804Y-51024D02*
X57364Y-51024D01*
G54D15*
X57362Y-51073D02*
G75*
G03X57362Y-51073I-28J0D01*
G74*
G01*
G54D14*
X57393Y-51113D02*
G75*
G03X57393Y-51387I0J-137D01*
G74*
G01*
X56607Y-51387D02*
G75*
G03X56607Y-51113I0J137D01*
G74*
G01*
G54D12*
X55000Y-54500D02*
X54500Y-54500D01*
X55000Y-54000D02*
X54510Y-54000D01*
X55000Y-53850D02*
X55000Y-54650D01*
X55000Y-54650D02*
X54500Y-54650D01*
X54500Y-54650D02*
X54500Y-53850D01*
X54500Y-53850D02*
X55000Y-53850D01*
G54D11*
X55127Y-59818D02*
X55127Y-62181D01*
X55127Y-62181D02*
X52372Y-62181D01*
X52372Y-62181D02*
X52372Y-59818D01*
X52372Y-59818D02*
X55127Y-59818D01*
G54D16*
X56121Y-54978D02*
X56140Y-54997D01*
X56159Y-55053D01*
X56159Y-55090D01*
X56140Y-55147D01*
X56103Y-55184D01*
X56065Y-55203D01*
X55990Y-55222D01*
X55934Y-55222D01*
X55859Y-55203D01*
X55821Y-55184D01*
X55784Y-55147D01*
X55765Y-55090D01*
X55765Y-55053D01*
X55784Y-54997D01*
X55803Y-54978D01*
X55765Y-54734D02*
X55765Y-54659D01*
X55784Y-54621D01*
X55821Y-54584D01*
X55896Y-54565D01*
X56028Y-54565D01*
X56103Y-54584D01*
X56140Y-54621D01*
X56159Y-54659D01*
X56159Y-54734D01*
X56140Y-54772D01*
X56103Y-54809D01*
X56028Y-54828D01*
X55896Y-54828D01*
X55821Y-54809D01*
X55784Y-54772D01*
X55765Y-54734D01*
X56159Y-54396D02*
X55765Y-54396D01*
X56159Y-54171D01*
X55765Y-54171D01*
X56159Y-53777D02*
X56159Y-54002D01*
X56159Y-53890D02*
X55765Y-53890D01*
X55821Y-53927D01*
X55859Y-53965D01*
X55878Y-54002D01*
G54D11*
X56168Y-56112D02*
X56168Y-55924D01*
X56281Y-56149D02*
X55887Y-56018D01*
X56281Y-55887D01*
X55887Y-55812D02*
X56281Y-55681D01*
X55887Y-55549D01*
X56281Y-55193D02*
X56093Y-55324D01*
X56281Y-55418D02*
X55887Y-55418D01*
X55887Y-55268D01*
X55906Y-55231D01*
X55925Y-55212D01*
X55962Y-55193D01*
X56018Y-55193D01*
X56056Y-55212D01*
X56075Y-55231D01*
X56093Y-55268D01*
X56093Y-55418D01*
X56131Y-55024D02*
X56131Y-54724D01*
X56281Y-54537D02*
X55887Y-54537D01*
X56262Y-54368D02*
X56281Y-54312D01*
X56281Y-54218D01*
X56262Y-54181D01*
X56243Y-54162D01*
X56206Y-54143D01*
X56168Y-54143D01*
X56131Y-54162D01*
X56112Y-54181D01*
X56093Y-54218D01*
X56075Y-54293D01*
X56056Y-54331D01*
X56037Y-54350D01*
X56000Y-54368D01*
X55962Y-54368D01*
X55925Y-54350D01*
X55906Y-54331D01*
X55887Y-54293D01*
X55887Y-54200D01*
X55906Y-54143D01*
X56281Y-53975D02*
X55887Y-53975D01*
X55887Y-53825D01*
X55906Y-53787D01*
X55925Y-53768D01*
X55962Y-53750D01*
X56018Y-53750D01*
X56056Y-53768D01*
X56075Y-53787D01*
X56093Y-53825D01*
X56093Y-53975D01*
X56131Y-53581D02*
X56131Y-53281D01*
X55887Y-52925D02*
X55887Y-53000D01*
X55906Y-53037D01*
X55925Y-53056D01*
X55981Y-53093D01*
X56056Y-53112D01*
X56206Y-53112D01*
X56243Y-53093D01*
X56262Y-53075D01*
X56281Y-53037D01*
X56281Y-52962D01*
X56262Y-52925D01*
X56243Y-52906D01*
X56206Y-52887D01*
X56112Y-52887D01*
X56075Y-52906D01*
X56056Y-52925D01*
X56037Y-52962D01*
X56037Y-53037D01*
X56056Y-53075D01*
X56075Y-53093D01*
X56112Y-53112D01*
G54D16*
X58159Y-52387D02*
X58159Y-52612D01*
X58159Y-52500D02*
X57765Y-52500D01*
X57821Y-52537D01*
X57859Y-52575D01*
X57878Y-52612D01*
X54269Y-56287D02*
X53974Y-56287D01*
X54241Y-55978D02*
X54255Y-55992D01*
X54269Y-56035D01*
X54269Y-56063D01*
X54255Y-56105D01*
X54227Y-56133D01*
X54199Y-56147D01*
X54142Y-56161D01*
X54100Y-56161D01*
X54044Y-56147D01*
X54016Y-56133D01*
X53988Y-56105D01*
X53974Y-56063D01*
X53974Y-56035D01*
X53988Y-55992D01*
X54002Y-55978D01*
X54269Y-55697D02*
X54269Y-55866D01*
X54269Y-55782D02*
X53974Y-55782D01*
X54016Y-55810D01*
X54044Y-55838D01*
X54058Y-55866D01*
X53385Y-57250D02*
X53385Y-57109D01*
X53469Y-57278D02*
X53174Y-57179D01*
X53469Y-57081D01*
X53174Y-57025D02*
X53174Y-56856D01*
X53469Y-56941D02*
X53174Y-56941D01*
X53174Y-56800D02*
X53174Y-56632D01*
X53469Y-56716D02*
X53174Y-56716D01*
X53469Y-56533D02*
X53174Y-56533D01*
X53469Y-56393D02*
X53174Y-56393D01*
X53469Y-56224D01*
X53174Y-56224D01*
X53328Y-56028D02*
X53469Y-56028D01*
X53174Y-56126D02*
X53328Y-56028D01*
X53174Y-55929D01*
X53300Y-55789D02*
X53286Y-55817D01*
X53272Y-55831D01*
X53244Y-55845D01*
X53230Y-55845D01*
X53202Y-55831D01*
X53188Y-55817D01*
X53174Y-55789D01*
X53174Y-55733D01*
X53188Y-55705D01*
X53202Y-55690D01*
X53230Y-55676D01*
X53244Y-55676D01*
X53272Y-55690D01*
X53286Y-55705D01*
X53300Y-55733D01*
X53300Y-55789D01*
X53314Y-55817D01*
X53328Y-55831D01*
X53357Y-55845D01*
X53413Y-55845D01*
X53441Y-55831D01*
X53455Y-55817D01*
X53469Y-55789D01*
X53469Y-55733D01*
X53455Y-55705D01*
X53441Y-55690D01*
X53413Y-55676D01*
X53357Y-55676D01*
X53328Y-55690D01*
X53314Y-55705D01*
X53300Y-55733D01*
X53174Y-55410D02*
X53174Y-55550D01*
X53314Y-55564D01*
X53300Y-55550D01*
X53286Y-55522D01*
X53286Y-55452D01*
X53300Y-55424D01*
X53314Y-55410D01*
X53342Y-55395D01*
X53413Y-55395D01*
X53441Y-55410D01*
X53455Y-55424D01*
X53469Y-55452D01*
X53469Y-55522D01*
X53455Y-55550D01*
X53441Y-55564D01*
X53357Y-55269D02*
X53357Y-55044D01*
X53455Y-54918D02*
X53469Y-54876D01*
X53469Y-54805D01*
X53455Y-54777D01*
X53441Y-54763D01*
X53413Y-54749D01*
X53385Y-54749D01*
X53357Y-54763D01*
X53342Y-54777D01*
X53328Y-54805D01*
X53314Y-54862D01*
X53300Y-54890D01*
X53286Y-54904D01*
X53258Y-54918D01*
X53230Y-54918D01*
X53202Y-54904D01*
X53188Y-54890D01*
X53174Y-54862D01*
X53174Y-54791D01*
X53188Y-54749D01*
G54D17*
X53480Y-54157D02*
X53441Y-54101D01*
X53412Y-54157D02*
X53412Y-54039D01*
X53457Y-54039D01*
X53469Y-54045D01*
X53474Y-54051D01*
X53480Y-54062D01*
X53480Y-54079D01*
X53474Y-54090D01*
X53469Y-54095D01*
X53457Y-54101D01*
X53412Y-54101D01*
X53581Y-54079D02*
X53581Y-54157D01*
X53553Y-54034D02*
X53525Y-54118D01*
X53598Y-54118D01*
X50480Y-52687D02*
X50441Y-52631D01*
X50412Y-52687D02*
X50412Y-52569D01*
X50457Y-52569D01*
X50469Y-52575D01*
X50474Y-52581D01*
X50480Y-52592D01*
X50480Y-52609D01*
X50474Y-52620D01*
X50469Y-52625D01*
X50457Y-52631D01*
X50412Y-52631D01*
X50519Y-52569D02*
X50592Y-52569D01*
X50553Y-52614D01*
X50570Y-52614D01*
X50581Y-52620D01*
X50587Y-52625D01*
X50592Y-52637D01*
X50592Y-52665D01*
X50587Y-52676D01*
X50581Y-52682D01*
X50570Y-52687D01*
X50536Y-52687D01*
X50525Y-52682D01*
X50519Y-52676D01*
X53730Y-52687D02*
X53691Y-52631D01*
X53662Y-52687D02*
X53662Y-52569D01*
X53707Y-52569D01*
X53719Y-52575D01*
X53724Y-52581D01*
X53730Y-52592D01*
X53730Y-52609D01*
X53724Y-52620D01*
X53719Y-52625D01*
X53707Y-52631D01*
X53662Y-52631D01*
X53775Y-52581D02*
X53780Y-52575D01*
X53792Y-52569D01*
X53820Y-52569D01*
X53831Y-52575D01*
X53837Y-52581D01*
X53842Y-52592D01*
X53842Y-52603D01*
X53837Y-52620D01*
X53769Y-52687D01*
X53842Y-52687D01*
X56980Y-52687D02*
X56941Y-52631D01*
X56912Y-52687D02*
X56912Y-52569D01*
X56957Y-52569D01*
X56969Y-52575D01*
X56974Y-52581D01*
X56980Y-52592D01*
X56980Y-52609D01*
X56974Y-52620D01*
X56969Y-52625D01*
X56957Y-52631D01*
X56912Y-52631D01*
X57092Y-52687D02*
X57025Y-52687D01*
X57059Y-52687D02*
X57059Y-52569D01*
X57047Y-52586D01*
X57036Y-52597D01*
X57025Y-52603D01*
G54D12*
X50300Y-50871D02*
X50157Y-50871D01*
X50157Y-50571D01*
X50400Y-50871D02*
X50400Y-50571D01*
X50471Y-50571D01*
X50514Y-50585D01*
X50542Y-50614D01*
X50557Y-50642D01*
X50571Y-50700D01*
X50571Y-50742D01*
X50557Y-50800D01*
X50542Y-50828D01*
X50514Y-50857D01*
X50471Y-50871D01*
X50400Y-50871D01*
X50671Y-50571D02*
X50857Y-50571D01*
X50757Y-50685D01*
X50800Y-50685D01*
X50828Y-50700D01*
X50842Y-50714D01*
X50857Y-50742D01*
X50857Y-50814D01*
X50842Y-50842D01*
X50828Y-50857D01*
X50800Y-50871D01*
X50714Y-50871D01*
X50685Y-50857D01*
X50671Y-50842D01*
X49828Y-51871D02*
X49685Y-51871D01*
X49685Y-51571D01*
X49928Y-51714D02*
X50028Y-51714D01*
X50071Y-51871D02*
X49928Y-51871D01*
X49928Y-51571D01*
X50071Y-51571D01*
X50200Y-51871D02*
X50200Y-51571D01*
X50271Y-51571D01*
X50314Y-51585D01*
X50342Y-51614D01*
X50357Y-51642D01*
X50371Y-51700D01*
X50371Y-51742D01*
X50357Y-51800D01*
X50342Y-51828D01*
X50314Y-51857D01*
X50271Y-51871D01*
X50200Y-51871D01*
X50500Y-51757D02*
X50728Y-51757D01*
X51042Y-51871D02*
X50942Y-51728D01*
X50871Y-51871D02*
X50871Y-51571D01*
X50985Y-51571D01*
X51014Y-51585D01*
X51028Y-51600D01*
X51042Y-51628D01*
X51042Y-51671D01*
X51028Y-51700D01*
X51014Y-51714D01*
X50985Y-51728D01*
X50871Y-51728D01*
X51328Y-51871D02*
X51157Y-51871D01*
X51242Y-51871D02*
X51242Y-51571D01*
X51214Y-51614D01*
X51185Y-51642D01*
X51157Y-51657D01*
X53550Y-50871D02*
X53407Y-50871D01*
X53407Y-50571D01*
X53650Y-50871D02*
X53650Y-50571D01*
X53721Y-50571D01*
X53764Y-50585D01*
X53792Y-50614D01*
X53807Y-50642D01*
X53821Y-50700D01*
X53821Y-50742D01*
X53807Y-50800D01*
X53792Y-50828D01*
X53764Y-50857D01*
X53721Y-50871D01*
X53650Y-50871D01*
X53935Y-50600D02*
X53950Y-50585D01*
X53978Y-50571D01*
X54050Y-50571D01*
X54078Y-50585D01*
X54092Y-50600D01*
X54107Y-50628D01*
X54107Y-50657D01*
X54092Y-50700D01*
X53921Y-50871D01*
X54107Y-50871D01*
X53221Y-51871D02*
X53078Y-51871D01*
X53078Y-51571D01*
X53321Y-51714D02*
X53421Y-51714D01*
X53464Y-51871D02*
X53321Y-51871D01*
X53321Y-51571D01*
X53464Y-51571D01*
X53592Y-51871D02*
X53592Y-51571D01*
X53664Y-51571D01*
X53707Y-51585D01*
X53735Y-51614D01*
X53750Y-51642D01*
X53764Y-51700D01*
X53764Y-51742D01*
X53750Y-51800D01*
X53735Y-51828D01*
X53707Y-51857D01*
X53664Y-51871D01*
X53592Y-51871D01*
X53892Y-51757D02*
X54121Y-51757D01*
X54421Y-51585D02*
X54392Y-51571D01*
X54350Y-51571D01*
X54307Y-51585D01*
X54278Y-51614D01*
X54264Y-51642D01*
X54250Y-51700D01*
X54250Y-51742D01*
X54264Y-51800D01*
X54278Y-51828D01*
X54307Y-51857D01*
X54350Y-51871D01*
X54378Y-51871D01*
X54421Y-51857D01*
X54435Y-51842D01*
X54435Y-51742D01*
X54378Y-51742D01*
X56800Y-50871D02*
X56657Y-50871D01*
X56657Y-50571D01*
X56900Y-50871D02*
X56900Y-50571D01*
X56971Y-50571D01*
X57014Y-50585D01*
X57042Y-50614D01*
X57057Y-50642D01*
X57071Y-50700D01*
X57071Y-50742D01*
X57057Y-50800D01*
X57042Y-50828D01*
X57014Y-50857D01*
X56971Y-50871D01*
X56900Y-50871D01*
X57357Y-50871D02*
X57185Y-50871D01*
X57271Y-50871D02*
X57271Y-50571D01*
X57242Y-50614D01*
X57214Y-50642D01*
X57185Y-50657D01*
X56328Y-51871D02*
X56185Y-51871D01*
X56185Y-51571D01*
X56428Y-51714D02*
X56528Y-51714D01*
X56571Y-51871D02*
X56428Y-51871D01*
X56428Y-51571D01*
X56571Y-51571D01*
X56700Y-51871D02*
X56700Y-51571D01*
X56771Y-51571D01*
X56814Y-51585D01*
X56842Y-51614D01*
X56857Y-51642D01*
X56871Y-51700D01*
X56871Y-51742D01*
X56857Y-51800D01*
X56842Y-51828D01*
X56814Y-51857D01*
X56771Y-51871D01*
X56700Y-51871D01*
X57000Y-51757D02*
X57228Y-51757D01*
X57542Y-51871D02*
X57442Y-51728D01*
X57371Y-51871D02*
X57371Y-51571D01*
X57485Y-51571D01*
X57514Y-51585D01*
X57528Y-51600D01*
X57542Y-51628D01*
X57542Y-51671D01*
X57528Y-51700D01*
X57514Y-51714D01*
X57485Y-51728D01*
X57371Y-51728D01*
X57657Y-51600D02*
X57671Y-51585D01*
X57700Y-51571D01*
X57771Y-51571D01*
X57800Y-51585D01*
X57814Y-51600D01*
X57828Y-51628D01*
X57828Y-51657D01*
X57814Y-51700D01*
X57642Y-51871D01*
X57828Y-51871D01*
G54D17*
X55176Y-54269D02*
X55182Y-54275D01*
X55187Y-54292D01*
X55187Y-54303D01*
X55182Y-54320D01*
X55170Y-54331D01*
X55159Y-54337D01*
X55137Y-54342D01*
X55120Y-54342D01*
X55097Y-54337D01*
X55086Y-54331D01*
X55075Y-54320D01*
X55069Y-54303D01*
X55069Y-54292D01*
X55075Y-54275D01*
X55081Y-54269D01*
X55187Y-54157D02*
X55187Y-54224D01*
X55187Y-54191D02*
X55069Y-54191D01*
X55086Y-54202D01*
X55097Y-54213D01*
X55103Y-54224D01*
G54D11*
X53225Y-59140D02*
X53281Y-59159D01*
X53375Y-59159D01*
X53412Y-59140D01*
X53431Y-59121D01*
X53450Y-59084D01*
X53450Y-59046D01*
X53431Y-59009D01*
X53412Y-58990D01*
X53375Y-58971D01*
X53300Y-58953D01*
X53262Y-58934D01*
X53243Y-58915D01*
X53225Y-58878D01*
X53225Y-58840D01*
X53243Y-58803D01*
X53262Y-58784D01*
X53300Y-58765D01*
X53393Y-58765D01*
X53450Y-58784D01*
X53581Y-58765D02*
X53675Y-59159D01*
X53750Y-58878D01*
X53824Y-59159D01*
X53918Y-58765D01*
X54274Y-59159D02*
X54049Y-59159D01*
X54162Y-59159D02*
X54162Y-58765D01*
X54124Y-58821D01*
X54087Y-58859D01*
X54049Y-58878D01*
X51837Y-63140D02*
X51893Y-63159D01*
X51987Y-63159D01*
X52025Y-63140D01*
X52043Y-63121D01*
X52062Y-63084D01*
X52062Y-63046D01*
X52043Y-63009D01*
X52025Y-62990D01*
X51987Y-62971D01*
X51912Y-62953D01*
X51875Y-62934D01*
X51856Y-62915D01*
X51837Y-62878D01*
X51837Y-62840D01*
X51856Y-62803D01*
X51875Y-62784D01*
X51912Y-62765D01*
X52006Y-62765D01*
X52062Y-62784D01*
X52193Y-62765D02*
X52287Y-63159D01*
X52362Y-62878D01*
X52437Y-63159D01*
X52531Y-62765D01*
X52587Y-63196D02*
X52887Y-63196D01*
X52981Y-63159D02*
X52981Y-62765D01*
X53131Y-62765D01*
X53168Y-62784D01*
X53187Y-62803D01*
X53206Y-62840D01*
X53206Y-62896D01*
X53187Y-62934D01*
X53168Y-62953D01*
X53131Y-62971D01*
X52981Y-62971D01*
X53375Y-62765D02*
X53375Y-63084D01*
X53393Y-63121D01*
X53412Y-63140D01*
X53450Y-63159D01*
X53525Y-63159D01*
X53562Y-63140D01*
X53581Y-63121D01*
X53600Y-63084D01*
X53600Y-62765D01*
X53768Y-63140D02*
X53824Y-63159D01*
X53918Y-63159D01*
X53956Y-63140D01*
X53974Y-63121D01*
X53993Y-63084D01*
X53993Y-63046D01*
X53974Y-63009D01*
X53956Y-62990D01*
X53918Y-62971D01*
X53843Y-62953D01*
X53806Y-62934D01*
X53787Y-62915D01*
X53768Y-62878D01*
X53768Y-62840D01*
X53787Y-62803D01*
X53806Y-62784D01*
X53843Y-62765D01*
X53937Y-62765D01*
X53993Y-62784D01*
X54162Y-63159D02*
X54162Y-62765D01*
X54162Y-62953D02*
X54387Y-62953D01*
X54387Y-63159D02*
X54387Y-62765D01*
X54481Y-63196D02*
X54781Y-63196D01*
X54856Y-63046D02*
X55043Y-63046D01*
X54818Y-63159D02*
X54949Y-62765D01*
X55081Y-63159D01*
X55399Y-63159D02*
X55212Y-63159D01*
X55212Y-62765D01*
X55474Y-62765D02*
X55699Y-62765D01*
X55587Y-63159D02*
X55587Y-62765D01*
M02*
