G04 (created by PCBNEW (2012-oct-18)-testing) date Mon 29 Oct 2012 19:12:37 NZDT*
%MOIN*%
G04 Gerber Fmt 3.4, Leading zero omitted, Abs format*
%FSLAX34Y34*%
G01*
G70*
G90*
G04 APERTURE LIST*
%ADD10C,0.006*%
%ADD11R,0.196902X0.0787008*%
%ADD12C,0.11811*%
%ADD13R,0.393701X0.393701*%
%ADD14C,0.035*%
%ADD15C,0.012*%
%ADD16C,0.036*%
%ADD17C,0.01*%
G04 APERTURE END LIST*
G54D10*
G54D11*
X57500Y-53500D03*
X57500Y-54500D03*
X57500Y-55500D03*
G54D12*
X49615Y-59500D03*
X57884Y-59500D03*
G54D13*
X53750Y-59500D03*
G54D14*
X55250Y-54500D03*
X56000Y-53250D03*
X54000Y-56250D03*
X55500Y-56750D03*
X51000Y-54250D03*
X53000Y-57250D03*
X52500Y-54250D03*
X57250Y-57250D03*
X56000Y-61750D03*
X52000Y-56750D03*
X54000Y-53750D03*
X51750Y-51250D03*
X58000Y-51250D03*
X54750Y-51250D03*
G54D15*
X57250Y-53750D02*
X57500Y-53500D01*
X55500Y-53750D02*
X57250Y-53750D01*
X55250Y-54000D02*
X55500Y-53750D01*
X55250Y-54500D02*
X55250Y-54000D01*
X55000Y-53250D02*
X56000Y-53250D01*
X54000Y-54250D02*
X55000Y-53250D01*
X54000Y-56250D02*
X54000Y-54250D01*
X55750Y-54500D02*
X57500Y-54500D01*
X55500Y-54750D02*
X55750Y-54500D01*
X55500Y-56750D02*
X55500Y-54750D01*
X57250Y-57250D02*
X53000Y-57250D01*
X51000Y-54250D02*
X52500Y-54250D01*
X56000Y-61750D02*
X53750Y-59500D01*
X51250Y-57750D02*
X51250Y-56750D01*
X52000Y-56750D02*
X51250Y-56750D01*
G54D16*
X49500Y-50500D02*
X49500Y-57750D01*
X49750Y-57750D02*
X51250Y-57750D01*
X51250Y-57750D02*
X51500Y-57750D01*
X51500Y-57750D02*
X53250Y-59500D01*
X53750Y-59500D02*
X53250Y-59500D01*
X49500Y-50500D02*
X51750Y-50500D01*
X49500Y-57750D02*
X49750Y-57750D01*
X54000Y-59250D02*
X53750Y-59500D01*
X54750Y-51250D02*
X54750Y-52250D01*
X54000Y-52250D02*
X54000Y-53750D01*
X54750Y-52250D02*
X54000Y-52250D01*
X57500Y-55500D02*
X58250Y-56250D01*
X54750Y-59500D02*
X53750Y-59500D01*
X56250Y-58000D02*
X54750Y-59500D01*
X58250Y-58000D02*
X56250Y-58000D01*
X58250Y-56250D02*
X58250Y-58000D01*
X55000Y-58250D02*
X53750Y-59500D01*
X54750Y-50500D02*
X58000Y-50500D01*
X58000Y-50500D02*
X58000Y-51250D01*
X51750Y-50500D02*
X54750Y-50500D01*
X54750Y-50500D02*
X54750Y-51250D01*
X51750Y-50500D02*
X51750Y-51250D01*
G54D10*
G36*
X58220Y-63220D02*
X55968Y-63220D01*
X55968Y-61418D01*
X55968Y-59612D01*
X55906Y-59550D01*
X53800Y-59550D01*
X53800Y-61656D01*
X53862Y-61718D01*
X55768Y-61718D01*
X55859Y-61680D01*
X55930Y-61610D01*
X55968Y-61518D01*
X55968Y-61418D01*
X55968Y-63220D01*
X53700Y-63220D01*
X53700Y-61656D01*
X53700Y-59550D01*
X51593Y-59550D01*
X51531Y-59612D01*
X51531Y-61418D01*
X51531Y-61518D01*
X51569Y-61610D01*
X51640Y-61680D01*
X51731Y-61718D01*
X53637Y-61718D01*
X53700Y-61656D01*
X53700Y-63220D01*
X49279Y-63220D01*
X49279Y-60270D01*
X49448Y-60340D01*
X49782Y-60340D01*
X50091Y-60213D01*
X50328Y-59976D01*
X50456Y-59667D01*
X50456Y-59333D01*
X50328Y-59024D01*
X50092Y-58787D01*
X49783Y-58659D01*
X49449Y-58659D01*
X49279Y-58729D01*
X49279Y-50279D01*
X58220Y-50279D01*
X58220Y-52856D01*
X56465Y-52856D01*
X56374Y-52894D01*
X56309Y-52958D01*
X56241Y-52889D01*
X56084Y-52825D01*
X55915Y-52824D01*
X55759Y-52889D01*
X55708Y-52940D01*
X55000Y-52940D01*
X54881Y-52963D01*
X54780Y-53030D01*
X53780Y-54030D01*
X53713Y-54131D01*
X53690Y-54250D01*
X53690Y-55958D01*
X53639Y-56008D01*
X53575Y-56165D01*
X53574Y-56334D01*
X53639Y-56490D01*
X53758Y-56610D01*
X53915Y-56674D01*
X54084Y-56675D01*
X54240Y-56610D01*
X54360Y-56491D01*
X54424Y-56334D01*
X54425Y-56165D01*
X54360Y-56009D01*
X54310Y-55958D01*
X54310Y-54378D01*
X55128Y-53560D01*
X55251Y-53560D01*
X55030Y-53780D01*
X54963Y-53881D01*
X54940Y-54000D01*
X54940Y-54208D01*
X54889Y-54258D01*
X54825Y-54415D01*
X54824Y-54584D01*
X54889Y-54740D01*
X55008Y-54860D01*
X55165Y-54924D01*
X55190Y-54924D01*
X55190Y-56458D01*
X55139Y-56508D01*
X55075Y-56665D01*
X55074Y-56834D01*
X55118Y-56940D01*
X53291Y-56940D01*
X53241Y-56889D01*
X53084Y-56825D01*
X52925Y-56824D01*
X52925Y-54165D01*
X52860Y-54009D01*
X52741Y-53889D01*
X52584Y-53825D01*
X52415Y-53824D01*
X52259Y-53889D01*
X52208Y-53940D01*
X51291Y-53940D01*
X51241Y-53889D01*
X51084Y-53825D01*
X50915Y-53824D01*
X50759Y-53889D01*
X50639Y-54008D01*
X50575Y-54165D01*
X50574Y-54334D01*
X50639Y-54490D01*
X50758Y-54610D01*
X50915Y-54674D01*
X51084Y-54675D01*
X51240Y-54610D01*
X51291Y-54560D01*
X52208Y-54560D01*
X52258Y-54610D01*
X52415Y-54674D01*
X52584Y-54675D01*
X52740Y-54610D01*
X52860Y-54491D01*
X52924Y-54334D01*
X52925Y-54165D01*
X52925Y-56824D01*
X52915Y-56824D01*
X52759Y-56889D01*
X52639Y-57008D01*
X52575Y-57165D01*
X52574Y-57281D01*
X51731Y-57281D01*
X51640Y-57319D01*
X51569Y-57389D01*
X51531Y-57481D01*
X51531Y-57581D01*
X51531Y-59387D01*
X51593Y-59450D01*
X53650Y-59450D01*
X53700Y-59450D01*
X53800Y-59450D01*
X53850Y-59450D01*
X55906Y-59450D01*
X55968Y-59387D01*
X55968Y-57581D01*
X55968Y-57560D01*
X56958Y-57560D01*
X57008Y-57610D01*
X57165Y-57674D01*
X57334Y-57675D01*
X57490Y-57610D01*
X57610Y-57491D01*
X57674Y-57334D01*
X57675Y-57165D01*
X57610Y-57009D01*
X57491Y-56889D01*
X57450Y-56872D01*
X57450Y-56081D01*
X57450Y-55550D01*
X56327Y-55550D01*
X56265Y-55612D01*
X56265Y-55943D01*
X56303Y-56034D01*
X56373Y-56105D01*
X56465Y-56143D01*
X56565Y-56143D01*
X57387Y-56143D01*
X57450Y-56081D01*
X57450Y-56872D01*
X57334Y-56825D01*
X57165Y-56824D01*
X57009Y-56889D01*
X56958Y-56940D01*
X55881Y-56940D01*
X55924Y-56834D01*
X55925Y-56665D01*
X55860Y-56509D01*
X55810Y-56458D01*
X55810Y-54878D01*
X55878Y-54810D01*
X56265Y-54810D01*
X56265Y-54943D01*
X56288Y-55000D01*
X56265Y-55056D01*
X56265Y-55387D01*
X56327Y-55450D01*
X57400Y-55450D01*
X57450Y-55450D01*
X57550Y-55450D01*
X57550Y-55550D01*
X57550Y-55600D01*
X57550Y-56081D01*
X57612Y-56143D01*
X58220Y-56143D01*
X58220Y-58729D01*
X58051Y-58659D01*
X57717Y-58659D01*
X57408Y-58787D01*
X57171Y-59023D01*
X57043Y-59332D01*
X57043Y-59666D01*
X57171Y-59975D01*
X57407Y-60212D01*
X57716Y-60340D01*
X58050Y-60340D01*
X58220Y-60270D01*
X58220Y-63220D01*
X58220Y-63220D01*
G37*
G54D17*
X58220Y-63220D02*
X55968Y-63220D01*
X55968Y-61418D01*
X55968Y-59612D01*
X55906Y-59550D01*
X53800Y-59550D01*
X53800Y-61656D01*
X53862Y-61718D01*
X55768Y-61718D01*
X55859Y-61680D01*
X55930Y-61610D01*
X55968Y-61518D01*
X55968Y-61418D01*
X55968Y-63220D01*
X53700Y-63220D01*
X53700Y-61656D01*
X53700Y-59550D01*
X51593Y-59550D01*
X51531Y-59612D01*
X51531Y-61418D01*
X51531Y-61518D01*
X51569Y-61610D01*
X51640Y-61680D01*
X51731Y-61718D01*
X53637Y-61718D01*
X53700Y-61656D01*
X53700Y-63220D01*
X49279Y-63220D01*
X49279Y-60270D01*
X49448Y-60340D01*
X49782Y-60340D01*
X50091Y-60213D01*
X50328Y-59976D01*
X50456Y-59667D01*
X50456Y-59333D01*
X50328Y-59024D01*
X50092Y-58787D01*
X49783Y-58659D01*
X49449Y-58659D01*
X49279Y-58729D01*
X49279Y-50279D01*
X58220Y-50279D01*
X58220Y-52856D01*
X56465Y-52856D01*
X56374Y-52894D01*
X56309Y-52958D01*
X56241Y-52889D01*
X56084Y-52825D01*
X55915Y-52824D01*
X55759Y-52889D01*
X55708Y-52940D01*
X55000Y-52940D01*
X54881Y-52963D01*
X54780Y-53030D01*
X53780Y-54030D01*
X53713Y-54131D01*
X53690Y-54250D01*
X53690Y-55958D01*
X53639Y-56008D01*
X53575Y-56165D01*
X53574Y-56334D01*
X53639Y-56490D01*
X53758Y-56610D01*
X53915Y-56674D01*
X54084Y-56675D01*
X54240Y-56610D01*
X54360Y-56491D01*
X54424Y-56334D01*
X54425Y-56165D01*
X54360Y-56009D01*
X54310Y-55958D01*
X54310Y-54378D01*
X55128Y-53560D01*
X55251Y-53560D01*
X55030Y-53780D01*
X54963Y-53881D01*
X54940Y-54000D01*
X54940Y-54208D01*
X54889Y-54258D01*
X54825Y-54415D01*
X54824Y-54584D01*
X54889Y-54740D01*
X55008Y-54860D01*
X55165Y-54924D01*
X55190Y-54924D01*
X55190Y-56458D01*
X55139Y-56508D01*
X55075Y-56665D01*
X55074Y-56834D01*
X55118Y-56940D01*
X53291Y-56940D01*
X53241Y-56889D01*
X53084Y-56825D01*
X52925Y-56824D01*
X52925Y-54165D01*
X52860Y-54009D01*
X52741Y-53889D01*
X52584Y-53825D01*
X52415Y-53824D01*
X52259Y-53889D01*
X52208Y-53940D01*
X51291Y-53940D01*
X51241Y-53889D01*
X51084Y-53825D01*
X50915Y-53824D01*
X50759Y-53889D01*
X50639Y-54008D01*
X50575Y-54165D01*
X50574Y-54334D01*
X50639Y-54490D01*
X50758Y-54610D01*
X50915Y-54674D01*
X51084Y-54675D01*
X51240Y-54610D01*
X51291Y-54560D01*
X52208Y-54560D01*
X52258Y-54610D01*
X52415Y-54674D01*
X52584Y-54675D01*
X52740Y-54610D01*
X52860Y-54491D01*
X52924Y-54334D01*
X52925Y-54165D01*
X52925Y-56824D01*
X52915Y-56824D01*
X52759Y-56889D01*
X52639Y-57008D01*
X52575Y-57165D01*
X52574Y-57281D01*
X51731Y-57281D01*
X51640Y-57319D01*
X51569Y-57389D01*
X51531Y-57481D01*
X51531Y-57581D01*
X51531Y-59387D01*
X51593Y-59450D01*
X53650Y-59450D01*
X53700Y-59450D01*
X53800Y-59450D01*
X53850Y-59450D01*
X55906Y-59450D01*
X55968Y-59387D01*
X55968Y-57581D01*
X55968Y-57560D01*
X56958Y-57560D01*
X57008Y-57610D01*
X57165Y-57674D01*
X57334Y-57675D01*
X57490Y-57610D01*
X57610Y-57491D01*
X57674Y-57334D01*
X57675Y-57165D01*
X57610Y-57009D01*
X57491Y-56889D01*
X57450Y-56872D01*
X57450Y-56081D01*
X57450Y-55550D01*
X56327Y-55550D01*
X56265Y-55612D01*
X56265Y-55943D01*
X56303Y-56034D01*
X56373Y-56105D01*
X56465Y-56143D01*
X56565Y-56143D01*
X57387Y-56143D01*
X57450Y-56081D01*
X57450Y-56872D01*
X57334Y-56825D01*
X57165Y-56824D01*
X57009Y-56889D01*
X56958Y-56940D01*
X55881Y-56940D01*
X55924Y-56834D01*
X55925Y-56665D01*
X55860Y-56509D01*
X55810Y-56458D01*
X55810Y-54878D01*
X55878Y-54810D01*
X56265Y-54810D01*
X56265Y-54943D01*
X56288Y-55000D01*
X56265Y-55056D01*
X56265Y-55387D01*
X56327Y-55450D01*
X57400Y-55450D01*
X57450Y-55450D01*
X57550Y-55450D01*
X57550Y-55550D01*
X57550Y-55600D01*
X57550Y-56081D01*
X57612Y-56143D01*
X58220Y-56143D01*
X58220Y-58729D01*
X58051Y-58659D01*
X57717Y-58659D01*
X57408Y-58787D01*
X57171Y-59023D01*
X57043Y-59332D01*
X57043Y-59666D01*
X57171Y-59975D01*
X57407Y-60212D01*
X57716Y-60340D01*
X58050Y-60340D01*
X58220Y-60270D01*
X58220Y-63220D01*
M02*
